<?xml version="1.0" encoding="UTF-8" standalone="no"?>
<svg width="30px" height="30px" viewBox="0 0 30 30" version="1.1" xmlns="http://www.w3.org/2000/svg" xmlns:xlink="http://www.w3.org/1999/xlink" xmlns:sketch="http://www.bohemiancoding.com/sketch/ns">
    <!-- Generator: Sketch 3.0.4 (8054) - http://www.bohemiancoding.com/sketch -->
    <title>arrow-right</title>
    <desc>Created with Sketch.</desc>
    <defs></defs>
    <g id="Page-1" stroke="none" stroke-width="1" fill="none" fill-rule="evenodd" sketch:type="MSPage">
        <g id="arrow-right" sketch:type="MSLayerGroup">
            <path d="M15,30 C23.2842712,30 30,23.2842712 30,15 C30,6.71572875 23.2842712,0 15,0 C6.71572875,0 0,6.71572875 0,15 C0,23.2842712 6.71572875,30 15,30 Z" id="Oval-1" fill="#4990E2" sketch:type="MSShapeGroup" transform="translate(15.000000, 15.000000) scale(-1, 1) translate(-15.000000, -15.000000) "></path>
            <path d="M12.6698817,7.47881773 C12.3080887,7.10292889 12.3080887,6.49340702 12.6698817,6.11751818 C13.0316747,5.74162935 13.6183394,5.74162935 13.9801325,6.11751818 L22.6159827,15.0898302 L13.9801325,24.0621422 C13.6183394,24.438031 13.0316747,24.438031 12.6698817,24.0621422 C12.3080887,23.6862534 12.3080887,23.0767315 12.6698817,22.7008427 L19.9954812,15.0898302 L12.6698817,7.47881773 L12.6698817,7.47881773 Z" id="Shape-2" fill="#FFFFFF" sketch:type="MSShapeGroup" transform="translate(17.363942, 15.057068) scale(-1, 1) rotate(180.000000) translate(-17.363942, -15.057068) "></path>
        </g>
    </g>
</svg>