<?xml version="1.0" encoding="UTF-8" standalone="no"?>
<svg width="66px" height="63px" viewBox="0 0 66 63" version="1.1" xmlns="http://www.w3.org/2000/svg" xmlns:xlink="http://www.w3.org/1999/xlink" xmlns:sketch="http://www.bohemiancoding.com/sketch/ns">
    <!-- Generator: Sketch 3.0.4 (8054) - http://www.bohemiancoding.com/sketch -->
    <title>Fill 62</title>
    <desc>Created with Sketch.</desc>
    <defs></defs>
    <g id="Page-1" stroke="none" stroke-width="1" fill="none" fill-rule="evenodd" sketch:type="MSPage">
        <g id="60_free_icons_by_yegor_shustov" sketch:type="MSLayerGroup" transform="translate(-592.000000, -1064.000000)" fill="#F6BB42">
            <g id="Fill-62-+-Fill-63-+-Fill-64" transform="translate(592.000000, 1064.000000)" sketch:type="MSShapeGroup">
                <path d="M64.292,23.16 C63.823,21.71 62.573,20.66 61.069,20.44 L43.794,17.93 L36.071,2.277 C35.397,0.913 34.009,0.05 32.489,0.05 C30.968,0.05 29.579,0.913 28.907,2.277 L21.183,17.93 L3.907,20.44 C2.403,20.66 1.153,21.71 0.685,23.16 C0.214,24.6 0.606,26.19 1.694,27.25 L14.192,39.43 L11.243,56.64 C10.985,58.14 11.601,59.65 12.831,60.54 C13.528,61.05 14.351,61.31 15.179,61.31 C15.815,61.31 16.454,61.15 17.038,60.85 L32.489,52.73 L47.938,60.85 C48.522,61.15 49.161,61.31 49.798,61.31 C50.626,61.31 51.448,61.05 52.146,60.54 C53.376,59.65 53.991,58.14 53.733,56.64 L50.784,39.43 L63.282,27.25 C64.37,26.19 64.763,24.6 64.292,23.16 L64.292,23.16 Z" id="Fill-62"></path>
            </g>
        </g>
    </g>
</svg>