<?xml version="1.0" encoding="UTF-8" standalone="no"?>
<svg width="64px" height="65px" viewBox="0 0 64 65" version="1.1" xmlns="http://www.w3.org/2000/svg" xmlns:xlink="http://www.w3.org/1999/xlink" xmlns:sketch="http://www.bohemiancoding.com/sketch/ns">
    <!-- Generator: Sketch 3.0.4 (8054) - http://www.bohemiancoding.com/sketch -->
    <title>Fill 183 + Fill 184 + Fill 185</title>
    <desc>Created with Sketch.</desc>
    <defs></defs>
    <g id="Page-1" stroke="none" stroke-width="1" fill="none" fill-rule="evenodd" sketch:type="MSPage">
        <g id="60_free_icons_by_yegor_shustov" sketch:type="MSLayerGroup" transform="translate(-330.000000, -2181.000000)" fill="#4990E2">
            <g id="Fill-183-+-Fill-184-+-Fill-185" transform="translate(330.000000, 2181.000000)" sketch:type="MSShapeGroup">
                <path d="M59.455,59.64 L49.191,60.19 L31.268,42.27 C28.867,43.25 26.316,43.74 23.762,43.74 C18.699,43.74 13.635,41.81 9.771,37.94 C2.043,30.22 2.045,17.69 9.773,9.96 C13.639,6.1 18.703,4.16 23.768,4.16 C28.83,4.16 33.895,6.1 37.758,9.96 C43.57,15.77 45.008,24.29 42.082,31.45 L50.027,39.4 L50.027,44.36 L55,44.37 L55,49.34 L59.963,49.33 L60.006,49.38 L59.455,59.64 L59.455,59.64 Z M62.803,46.54 L62.76,46.5 C62.014,45.76 61.01,45.35 59.963,45.35 L59.961,45.35 L58.984,45.35 L58.984,44.37 C58.984,42.18 57.207,40.39 55.01,40.39 L54.012,40.39 L54.012,39.4 C54.012,38.34 53.592,37.33 52.846,36.58 L46.654,30.39 C48.977,22.17 46.721,13.28 40.576,7.14 C36.086,2.65 30.117,0.18 23.768,0.18 C17.416,0.18 11.445,2.65 6.955,7.14 C2.465,11.63 -0.01,17.6 -0.01,23.95 C-0.01,30.3 2.463,36.27 6.955,40.76 C11.443,45.25 17.412,47.72 23.762,47.72 C25.959,47.72 28.115,47.43 30.205,46.84 L46.373,63.01 C47.123,63.76 48.137,64.18 49.191,64.18 C49.262,64.18 49.334,64.18 49.406,64.17 L59.668,63.62 C61.701,63.51 63.324,61.89 63.434,59.85 L63.986,49.59 C64.047,48.45 63.617,47.34 62.803,46.54 L62.803,46.54 Z" id="Fill-183"></path>
                <path d="M14.678,14.86 C15.543,14 16.693,13.52 17.918,13.52 C19.141,13.52 20.291,14 21.156,14.86 C22.021,15.73 22.498,16.88 22.498,18.1 C22.498,19.33 22.021,20.48 21.156,21.34 C20.289,22.21 19.139,22.68 17.916,22.68 C16.691,22.68 15.541,22.21 14.676,21.34 C12.891,19.56 12.891,16.65 14.678,14.86 L14.678,14.86 Z M17.916,25.34 C19.85,25.34 21.668,24.59 23.035,23.22 C24.402,21.85 25.154,20.04 25.154,18.1 C25.156,16.17 24.402,14.35 23.035,12.98 C21.668,11.62 19.852,10.86 17.918,10.86 C15.984,10.86 14.166,11.62 12.799,12.99 C9.977,15.81 9.975,20.4 12.797,23.22 C14.164,24.59 15.982,25.34 17.916,25.34 L17.916,25.34 Z" id="Fill-184"></path>
                <path d="M36.17,34.47 C41.615,28.07 41.326,18.42 35.277,12.37 C32.957,10.05 30.035,8.5 26.826,7.88 C26.109,7.75 25.408,8.22 25.271,8.94 C25.133,9.66 25.604,10.35 26.324,10.49 C29.01,11.01 31.457,12.31 33.398,14.25 C38.729,19.58 38.729,28.25 33.398,33.58 C30.816,36.17 27.383,37.59 23.73,37.59 C20.078,37.59 16.645,36.17 14.063,33.58 C12.121,31.64 10.822,29.2 10.307,26.51 C10.168,25.79 9.471,25.32 8.752,25.46 C8.031,25.59 7.559,26.29 7.697,27.01 C8.314,30.22 9.865,33.14 12.184,35.46 C15.268,38.55 19.369,40.25 23.73,40.25 C27.646,40.25 31.35,38.87 34.297,36.36 L52.594,54.66 C52.854,54.92 53.193,55.05 53.533,55.05 C53.873,55.05 54.213,54.92 54.471,54.66 C54.99,54.14 54.99,53.3 54.471,52.78 L36.17,34.47" id="Fill-185"></path>
            </g>
        </g>
    </g>
</svg>