<?xml version="1.0" encoding="UTF-8" standalone="no"?>
<svg width="65px" height="65px" viewBox="0 0 65 65" version="1.1" xmlns="http://www.w3.org/2000/svg" xmlns:xlink="http://www.w3.org/1999/xlink" xmlns:sketch="http://www.bohemiancoding.com/sketch/ns">
    <!-- Generator: Sketch 3.0.4 (8054) - http://www.bohemiancoding.com/sketch -->
    <title>search</title>
    <desc>Created with Sketch.</desc>
    <defs></defs>
    <g id="Page-1" stroke="none" stroke-width="1" fill="none" fill-rule="evenodd" sketch:type="MSPage">
        <g id="60_free_icons_by_yegor_shustov" sketch:type="MSLayerGroup" transform="translate(-159.000000, -825.000000)" fill="#4990E2">
            <g id="search" transform="translate(192.000000, 857.000000) scale(-1, 1) translate(-192.000000, -857.000000) translate(160.000000, 825.000000)" sketch:type="MSShapeGroup">
                <path d="M54.513,38.562 C50.708,42.367 45.648,44.462 40.268,44.462 C34.887,44.462 29.827,42.367 26.022,38.562 C22.218,34.757 20.123,29.698 20.123,24.317 C20.123,18.936 22.218,13.876 26.022,10.072 C29.827,6.267 34.887,4.172 40.268,4.172 C45.648,4.172 50.708,6.267 54.513,10.072 C58.317,13.876 60.412,18.936 60.412,24.317 C60.412,29.698 58.317,34.757 54.513,38.562 L54.513,38.562 Z M8.237,59.357 L5.257,56.376 L21.789,39.845 C22.236,40.374 22.703,40.89 23.198,41.386 C23.703,41.892 24.23,42.368 24.771,42.822 L8.237,59.357 L8.237,59.357 Z M57.337,7.247 C52.777,2.688 46.716,0.178 40.268,0.178 C33.819,0.178 27.758,2.688 23.198,7.247 C18.639,11.806 16.128,17.868 16.128,24.317 C16.128,28.684 17.283,32.873 19.444,36.54 L1.021,54.964 C0.646,55.339 0.436,55.847 0.436,56.376 C0.436,56.906 0.646,57.413 1.021,57.788 L6.825,63.593 C7.199,63.968 7.707,64.179 8.237,64.179 C8.768,64.179 9.275,63.968 9.649,63.593 L28.08,45.161 C31.738,47.308 35.914,48.456 40.268,48.456 C46.716,48.456 52.777,45.945 57.337,41.386 C61.896,36.827 64.407,30.764 64.407,24.317 C64.407,17.868 61.896,11.806 57.337,7.247 L57.337,7.247 Z" id="Fill-42"></path>
                <path d="M56.082,26.704 C55.366,26.535 54.648,26.978 54.479,27.693 C53.857,30.322 52.514,32.725 50.595,34.643 C47.836,37.404 44.168,38.923 40.268,38.923 C36.366,38.923 32.698,37.404 29.939,34.643 C29.453,34.159 28.998,33.634 28.584,33.085 C28.143,32.497 27.309,32.378 26.72,32.821 C26.133,33.263 26.014,34.098 26.457,34.686 C26.945,35.335 27.483,35.954 28.057,36.526 C31.318,39.79 35.654,41.585 40.268,41.585 C44.88,41.585 49.217,39.79 52.478,36.527 C54.746,34.259 56.335,31.416 57.07,28.306 C57.24,27.591 56.797,26.873 56.082,26.704" id="Fill-43"></path>
                <path d="M26.348,28.75 C24.688,23.521 26.063,17.865 29.939,13.989 C32.698,11.231 36.366,9.711 40.268,9.711 C44.168,9.711 47.836,11.231 50.595,13.99 C52.457,15.851 53.781,18.177 54.425,20.715 C54.605,21.427 55.328,21.859 56.042,21.679 C56.755,21.498 57.187,20.774 57.006,20.061 C56.245,17.058 54.68,14.306 52.478,12.106 C49.217,8.845 44.88,7.048 40.268,7.048 C35.654,7.048 31.318,8.845 28.057,12.106 C23.475,16.689 21.847,23.375 23.81,29.556 C23.99,30.123 24.514,30.485 25.078,30.485 C25.212,30.485 25.348,30.465 25.482,30.422 C26.183,30.2 26.57,29.451 26.348,28.75" id="Fill-44"></path>
                <path d="M42.915,12.876 C42.198,12.709 41.484,13.158 41.318,13.874 C41.153,14.591 41.601,15.306 42.316,15.471 C43.97,15.852 45.48,16.691 46.688,17.897 C46.947,18.157 47.288,18.286 47.629,18.286 C47.969,18.286 48.311,18.157 48.57,17.897 C49.09,17.376 49.09,16.533 48.57,16.013 C47.01,14.454 45.055,13.369 42.915,12.876" id="Fill-45"></path>
                <path d="M49.301,23.413 C49.368,24.101 49.947,24.615 50.625,24.615 C50.668,24.615 50.713,24.613 50.756,24.608 C51.488,24.535 52.023,23.884 51.951,23.152 C51.862,22.257 51.671,21.37 51.381,20.518 C51.144,19.823 50.389,19.45 49.691,19.687 C48.994,19.924 48.623,20.68 48.859,21.376 C49.084,22.036 49.232,22.721 49.301,23.413" id="Fill-46"></path>
            </g>
        </g>
    </g>
</svg>