<?xml version="1.0" encoding="UTF-8" standalone="no"?>
<svg width="52px" height="65px" viewBox="0 0 52 65" version="1.1" xmlns="http://www.w3.org/2000/svg" xmlns:xlink="http://www.w3.org/1999/xlink" xmlns:sketch="http://www.bohemiancoding.com/sketch/ns">
    <!-- Generator: Sketch 3.0.4 (8054) - http://www.bohemiancoding.com/sketch -->
    <title>Fill 60 + Fill 61</title>
    <desc>Created with Sketch.</desc>
    <defs></defs>
    <g id="Page-1" stroke="none" stroke-width="1" fill="none" fill-rule="evenodd" sketch:type="MSPage">
        <g id="60_free_icons_by_yegor_shustov" sketch:type="MSLayerGroup" transform="translate(-429.000000, -1062.000000)" fill="#6D6D6D">
            <g id="Fill-60-+-Fill-61" transform="translate(430.000000, 1063.000000)" sketch:type="MSShapeGroup">
                <path d="M24.958,3.695 C26.038,3.695 26.916,4.574 26.916,5.65 C26.916,6.73 26.038,7.61 24.958,7.61 C23.877,7.61 22.998,6.73 22.998,5.65 C22.998,4.574 23.877,3.695 24.958,3.695 L24.958,3.695 Z M24.958,11.63 C28.253,11.63 30.934,8.95 30.934,5.65 C30.934,2.359 28.253,-0.322 24.958,-0.322 C21.663,-0.322 18.982,2.359 18.982,5.65 C18.982,8.95 21.663,11.63 24.958,11.63 L24.958,11.63 Z" id="Fill-60"></path>
                <path d="M7.867,49.85 L28.981,49.85 C29.721,49.85 30.32,49.25 30.32,48.51 C30.32,47.77 29.721,47.18 28.981,47.18 L7.867,47.18 L7.867,35.65 C7.867,26.21 15.549,18.53 24.992,18.53 C34.434,18.53 42.115,26.21 42.115,35.65 L42.115,47.18 L36.943,47.18 C36.203,47.18 35.604,47.77 35.604,48.51 C35.604,49.25 36.203,49.85 36.943,49.85 L42.115,49.85 L42.115,52.78 L7.867,52.78 L7.867,49.85 L7.867,49.85 Z M24.992,59.66 C23.02,59.66 21.316,58.48 20.551,56.79 L29.433,56.79 C28.666,58.48 26.965,59.66 24.992,59.66 L24.992,59.66 Z M48.122,52.78 L46.132,52.78 L46.132,35.65 C46.132,23.99 36.648,14.51 24.992,14.51 C13.334,14.51 3.851,23.99 3.851,35.65 L3.851,52.78 L1.86,52.78 C0.751,52.78 -0.148,53.68 -0.148,54.78 C-0.148,55.89 0.751,56.79 1.86,56.79 L16.337,56.79 C17.251,60.73 20.78,63.68 24.992,63.68 C29.203,63.68 32.732,60.73 33.646,56.79 L48.122,56.79 C49.231,56.79 50.131,55.89 50.131,54.78 C50.131,53.68 49.231,52.78 48.122,52.78 L48.122,52.78 Z" id="Fill-61"></path>
            </g>
        </g>
    </g>
</svg>