<?xml version="1.0" encoding="UTF-8" standalone="no"?>
<svg width="65px" height="62px" viewBox="0 0 65 62" version="1.1" xmlns="http://www.w3.org/2000/svg" xmlns:xlink="http://www.w3.org/1999/xlink" xmlns:sketch="http://www.bohemiancoding.com/sketch/ns">
    <!-- Generator: Sketch 3.0.4 (8054) - http://www.bohemiancoding.com/sketch -->
    <title>Group</title>
    <desc>Created with Sketch.</desc>
    <defs></defs>
    <g id="Page-1" stroke="none" stroke-width="1" fill="none" fill-rule="evenodd" sketch:type="MSPage">
        <g id="60_free_icons_by_yegor_shustov" sketch:type="MSLayerGroup" transform="translate(-422.000000, -1742.000000)" fill="#4990E2">
            <g id="Group" transform="translate(423.000000, 1742.000000)" sketch:type="MSShapeGroup">
                <path d="M59.981,37.22 C59.981,40.86 57.009,43.83 53.375,43.83 L43.416,43.83 C43.403,44.03 43.348,44.24 43.392,44.45 C44.451,49.52 45.958,53.24 49.967,57.19 C46.045,56.56 36.204,54.72 31.898,43.83 L10.606,43.83 C6.973,43.83 4,40.86 4,37.22 L4,10.77 C4,7.13 6.973,4.16 10.606,4.16 L53.375,4.16 C57.009,4.16 59.981,7.13 59.981,10.77 L59.981,37.22 L59.981,37.22 Z M53.375,0.15 L10.606,0.15 C4.753,0.15 -0.009,4.92 -0.009,10.77 L-0.009,37.22 C-0.009,43.08 4.753,47.84 10.606,47.84 L29.324,47.84 C31.574,52.17 34.873,55.54 39.158,57.88 C43.407,60.19 47.554,60.86 49.324,61.15 C49.539,61.19 49.755,61.2 49.968,61.2 C51.458,61.2 52.85,60.37 53.541,59.01 C54.33,57.45 54.024,55.57 52.783,54.34 C50.584,52.17 49.328,50.16 48.469,47.84 L53.375,47.84 C59.229,47.84 63.991,43.08 63.991,37.22 L63.991,10.77 C63.991,4.92 59.229,0.15 53.375,0.15 L53.375,0.15 Z" id="Fill-96"></path>
                <path d="M52.354,33.73 L42.445,33.73 C41.707,33.73 41.109,34.33 41.109,35.07 C41.109,35.81 41.707,36.41 42.445,36.41 L52.354,36.41 C53.093,36.41 53.691,35.81 53.691,35.07 C53.691,34.33 53.093,33.73 52.354,33.73" id="Fill-97"></path>
                <path d="M35.84,33.73 L11.495,33.73 C10.758,33.73 10.159,34.33 10.159,35.07 C10.159,35.81 10.758,36.41 11.495,36.41 L35.84,36.41 C36.577,36.41 37.176,35.81 37.176,35.07 C37.176,34.33 36.577,33.73 35.84,33.73" id="Fill-98"></path>
                <path d="M52.354,26.27 L24.83,26.27 C24.092,26.27 23.493,26.87 23.493,27.61 C23.493,28.35 24.092,28.94 24.83,28.94 L52.354,28.94 C53.093,28.94 53.691,28.35 53.691,27.61 C53.691,26.87 53.093,26.27 52.354,26.27" id="Fill-99"></path>
                <path d="M11.495,28.94 L18.407,28.94 C19.145,28.94 19.744,28.35 19.744,27.61 C19.744,26.87 19.145,26.27 18.407,26.27 L11.495,26.27 C10.758,26.27 10.159,26.87 10.159,27.61 C10.159,28.35 10.758,28.94 11.495,28.94" id="Fill-100"></path>
                <path d="M52.354,18.81 L36.941,18.81 C36.203,18.81 35.604,19.41 35.604,20.15 C35.604,20.88 36.203,21.48 36.941,21.48 L52.354,21.48 C53.093,21.48 53.691,20.88 53.691,20.15 C53.691,19.41 53.093,18.81 52.354,18.81" id="Fill-101"></path>
                <path d="M11.495,21.48 L28.133,21.48 C28.871,21.48 29.469,20.88 29.469,20.15 C29.469,19.41 28.871,18.81 28.133,18.81 L11.495,18.81 C10.758,18.81 10.159,19.41 10.159,20.15 C10.159,20.88 10.758,21.48 11.495,21.48" id="Fill-102"></path>
                <path d="M52.354,11.35 L42.445,11.35 C41.707,11.35 41.109,11.94 41.109,12.68 C41.109,13.42 41.707,14.02 42.445,14.02 L52.354,14.02 C53.093,14.02 53.691,13.42 53.691,12.68 C53.691,11.94 53.093,11.35 52.354,11.35" id="Fill-103"></path>
                <path d="M11.495,14.02 L34.738,14.02 C35.477,14.02 36.075,13.42 36.075,12.68 C36.075,11.94 35.477,11.35 34.738,11.35 L11.495,11.35 C10.758,11.35 10.159,11.94 10.159,12.68 C10.159,13.42 10.758,14.02 11.495,14.02" id="Fill-104"></path>
            </g>
        </g>
    </g>
</svg>