<?xml version="1.0" encoding="UTF-8" standalone="no"?>
<svg width="66px" height="66px" viewBox="0 0 66 66" version="1.1" xmlns="http://www.w3.org/2000/svg" xmlns:xlink="http://www.w3.org/1999/xlink" xmlns:sketch="http://www.bohemiancoding.com/sketch/ns">
    <!-- Generator: Sketch 3.0.4 (8054) - http://www.bohemiancoding.com/sketch -->
    <title>search</title>
    <desc>Created with Sketch.</desc>
    <defs></defs>
    <g id="Page-1" stroke="none" stroke-width="1" fill="none" fill-rule="evenodd" sketch:type="MSPage">
        <path d="M51.573666,35.622769 C48.553767,38.642667 44.537819,40.305397 40.267897,40.305397 C35.997181,40.305397 31.981233,38.642667 28.961334,35.622769 C25.94223,32.602871 24.2795,28.587715 24.2795,24.317 C24.2795,20.046285 25.94223,16.030336 28.961334,13.011231 C31.981233,9.991333 35.997181,8.328603 40.267897,8.328603 C44.537819,8.328603 48.553767,9.991333 51.573666,13.011231 C54.59277,16.030336 56.2555,20.046285 56.2555,24.317 C56.2555,28.587715 54.59277,32.602871 51.573666,35.622769 L51.573666,35.622769 L51.573666,35.622769 Z M40.268,0.178 C33.819,0.178 27.758,2.688 23.198,7.247 C18.639,11.806 16.128,17.868 16.128,24.317 C16.128,28.684 17.283,32.873 19.444,36.54 L1.021,54.964 C0.646,55.339 0.436,55.847 0.436,56.376 C0.436,56.906 0.646,57.413 1.021,57.788 L6.825,63.593 C7.199,63.968 7.707,64.179 8.237,64.179 C8.768,64.179 9.275,63.968 9.649,63.593 L28.08,45.161 C31.738,47.308 35.914,48.456 40.268,48.456 C46.716,48.456 52.777,45.945 57.337,41.386 C61.896,36.827 64.407,30.764 64.407,24.317 C64.407,17.868 61.896,11.806 57.337,7.247 C52.777,2.688 46.716,0.178 40.268,0.178 L40.268,0.178 Z" id="search" fill="#6D6D6D" sketch:type="MSShapeGroup" transform="translate(32.436000, 32.178000) scale(-1, 1) translate(-32.436000, -32.178000) "></path>
    </g>
</svg>