<?xml version="1.0" encoding="UTF-8" standalone="no"?>
<svg width="64px" height="65px" viewBox="0 0 64 65" version="1.1" xmlns="http://www.w3.org/2000/svg" xmlns:xlink="http://www.w3.org/1999/xlink" xmlns:sketch="http://www.bohemiancoding.com/sketch/ns">
    <!-- Generator: Sketch 3.0.4 (8054) - http://www.bohemiancoding.com/sketch -->
    <title>cart</title>
    <desc>Created with Sketch.</desc>
    <defs></defs>
    <g id="Page-1" stroke="none" stroke-width="1" fill="none" fill-rule="evenodd" sketch:type="MSPage">
        <g id="60_free_icons_by_yegor_shustov" sketch:type="MSLayerGroup" transform="translate(-188.000000, -2924.000000)" fill="#4990E2">
            <g id="cart" transform="translate(188.000000, 2925.000000)" sketch:type="MSShapeGroup">
                <path d="M51.794,43.05 L36.906,43.05 L36.906,35.58 L45.97,35.58 C46.705,35.58 47.301,34.99 47.301,34.25 C47.301,33.52 46.705,32.92 45.97,32.92 L36.906,32.92 L36.906,26.55 L48.642,26.55 C49.377,26.55 49.973,25.95 49.973,25.22 C49.973,24.48 49.377,23.88 48.642,23.88 L36.906,23.88 L36.906,16.52 L57.78,16.52 L51.794,43.05 L51.794,43.05 Z M18.415,35.58 L25.357,35.58 L26.27,43.05 L20.1,43.05 L18.415,35.58 L18.415,35.58 Z M23.029,16.52 L23.929,23.88 L15.773,23.88 L14.111,16.52 L23.029,16.52 L23.029,16.52 Z M26.61,23.88 L25.711,16.52 L34.244,16.52 L34.244,23.88 L26.61,23.88 L26.61,23.88 Z M16.375,26.55 L24.254,26.55 L25.033,32.92 L17.814,32.92 L16.375,26.55 L16.375,26.55 Z M27.714,32.92 L26.936,26.55 L34.244,26.55 L34.244,32.92 L27.714,32.92 L27.714,32.92 Z M28.951,43.05 L28.04,35.58 L34.244,35.58 L34.244,43.05 L28.951,43.05 L28.951,43.05 Z M60.278,12.53 L11.613,12.53 C11.007,12.53 10.434,12.8 10.055,13.28 C9.676,13.75 9.533,14.37 9.666,14.96 L14.012,34.22 C14.012,34.23 14.008,34.24 14.008,34.25 C14.008,34.47 14.064,34.67 14.155,34.85 L16.555,45.48 C16.762,46.39 17.57,47.04 18.503,47.04 L53.39,47.04 C54.323,47.04 55.132,46.39 55.338,45.48 L62.226,14.96 C62.359,14.37 62.216,13.75 61.837,13.28 C61.459,12.8 60.886,12.53 60.278,12.53 L60.278,12.53 Z" id="Fill-193"></path>
                <path d="M25.924,59.55 C24.451,59.55 23.254,58.35 23.254,56.88 C23.254,55.41 24.451,54.21 25.924,54.21 C27.395,54.21 28.592,55.41 28.592,56.88 C28.592,58.35 27.395,59.55 25.924,59.55 L25.924,59.55 Z M25.924,50.22 C22.25,50.22 19.261,53.21 19.261,56.88 C19.261,60.55 22.25,63.54 25.924,63.54 C29.597,63.54 32.585,60.55 32.585,56.88 C32.585,53.21 29.597,50.22 25.924,50.22 L25.924,50.22 Z" id="Fill-194"></path>
                <path d="M45.97,59.55 C44.498,59.55 43.3,58.35 43.3,56.88 C43.3,55.41 44.498,54.21 45.97,54.21 C47.442,54.21 48.64,55.41 48.64,56.88 C48.64,58.35 47.442,59.55 45.97,59.55 L45.97,59.55 Z M45.97,50.22 C42.296,50.22 39.307,53.21 39.307,56.88 C39.307,60.55 42.296,63.54 45.97,63.54 C49.644,63.54 52.632,60.55 52.632,56.88 C52.632,53.21 49.644,50.22 45.97,50.22 L45.97,50.22 Z" id="Fill-195"></path>
                <path d="M61.994,5.9 L11.822,5.9 L10.813,1.42 C10.802,1.37 10.779,1.33 10.765,1.28 C10.742,1.21 10.723,1.13 10.692,1.06 C10.666,1 10.633,0.95 10.602,0.9 C10.569,0.84 10.541,0.78 10.503,0.73 C10.467,0.67 10.422,0.63 10.381,0.58 C10.338,0.53 10.299,0.48 10.253,0.43 C10.211,0.39 10.164,0.36 10.119,0.32 C10.064,0.28 10.011,0.23 9.95,0.19 C9.908,0.16 9.862,0.14 9.818,0.12 C9.749,0.08 9.682,0.04 9.607,0.01 C9.562,-0.01 9.513,-0.02 9.465,-0.03 C9.39,-0.06 9.316,-0.08 9.236,-0.1 C9.176,-0.11 9.113,-0.11 9.051,-0.11 C8.988,-0.12 8.929,-0.13 8.865,-0.13 L1.987,-0.13 C0.885,-0.13 -0.009,0.76 -0.009,1.86 C-0.009,2.97 0.885,3.86 1.987,3.86 L7.269,3.86 L8.278,8.33 C8.305,8.45 8.341,8.56 8.386,8.67 C8.39,8.68 8.396,8.68 8.4,8.69 C8.445,8.8 8.5,8.9 8.561,8.99 C8.581,9.02 8.604,9.05 8.626,9.08 C8.677,9.14 8.729,9.21 8.787,9.27 C8.818,9.3 8.852,9.33 8.884,9.36 C8.939,9.41 8.997,9.46 9.059,9.51 C9.098,9.53 9.137,9.56 9.178,9.59 C9.241,9.62 9.306,9.66 9.371,9.69 C9.414,9.71 9.457,9.73 9.502,9.75 C9.579,9.78 9.658,9.8 9.738,9.82 C9.776,9.83 9.813,9.84 9.851,9.85 C9.973,9.88 10.097,9.89 10.225,9.89 L10.23,9.89 L61.994,9.89 C63.097,9.89 63.991,9 63.991,7.89 C63.991,6.79 63.097,5.9 61.994,5.9" id="Fill-196"></path>
            </g>
        </g>
    </g>
</svg>