<?xml version="1.0" encoding="UTF-8" standalone="no"?>
<svg width="55px" height="65px" viewBox="0 0 55 65" version="1.1" xmlns="http://www.w3.org/2000/svg" xmlns:xlink="http://www.w3.org/1999/xlink" xmlns:sketch="http://www.bohemiancoding.com/sketch/ns">
    <!-- Generator: Sketch 3.0.4 (8054) - http://www.bohemiancoding.com/sketch -->
    <title>Fill 94 + Fill 95</title>
    <desc>Created with Sketch.</desc>
    <defs></defs>
    <g id="Page-1" stroke="none" stroke-width="1" fill="none" fill-rule="evenodd" sketch:type="MSPage">
        <g id="60_free_icons_by_yegor_shustov" sketch:type="MSLayerGroup" transform="translate(-165.000000, -1672.000000)" fill="#4990E2">
            <g id="Fill-94-+-Fill-95" transform="translate(166.000000, 1673.000000)" sketch:type="MSShapeGroup">
                <path d="M26.421,3.69 C32.688,3.69 37.787,8.79 37.787,15.06 C37.787,21.33 32.688,26.43 26.421,26.43 C20.154,26.43 15.055,21.33 15.055,15.06 C15.055,8.79 20.154,3.69 26.421,3.69 L26.421,3.69 Z M26.421,30.44 C34.902,30.44 41.803,23.54 41.803,15.06 C41.803,6.58 34.902,-0.32 26.421,-0.32 C17.939,-0.32 11.039,6.58 11.039,15.06 C11.039,23.54 17.939,30.44 26.421,30.44 L26.421,30.44 Z" id="Fill-94"></path>
                <path d="M27.76,59.62 L27.76,50.76 C27.76,50.03 27.16,49.43 26.421,49.43 C25.682,49.43 25.082,50.03 25.082,50.76 L25.082,59.62 C16.528,59.18 8.636,54.61 4.009,47.37 C5.947,44.34 8.459,41.76 11.381,39.75 C13.285,43.04 16.067,47.01 19.669,49.91 C20.153,50.3 20.841,50.3 21.33,49.92 C21.993,49.41 22.644,48.82 23.332,48.2 C24.345,47.29 25.387,46.35 26.421,45.7 C27.455,46.35 28.497,47.29 29.51,48.2 C30.198,48.82 30.849,49.41 31.512,49.92 C31.753,50.11 32.043,50.21 32.334,50.21 C32.631,50.21 32.928,50.11 33.173,49.91 C36.774,47.01 39.557,43.04 41.461,39.75 C44.383,41.76 46.895,44.34 48.833,47.37 C44.206,54.61 36.313,59.18 27.76,59.62 L27.76,59.62 Z M23.754,44.31 C22.991,44.91 22.258,45.56 21.539,46.21 C21.188,46.53 20.848,46.84 20.518,47.12 C17.598,44.53 15.293,41.18 13.664,38.35 C14.697,37.79 15.768,37.29 16.876,36.86 C18.602,39.83 20.944,42.36 23.754,44.31 L23.754,44.31 Z M35.966,36.86 C37.074,37.29 38.145,37.79 39.178,38.35 C37.549,41.18 35.244,44.53 32.324,47.12 C31.994,46.84 31.653,46.53 31.303,46.21 C30.584,45.56 29.851,44.91 29.088,44.31 C31.897,42.36 34.24,39.83 35.966,36.86 L35.966,36.86 Z M52.92,46.37 C49.073,39.72 42.924,34.79 35.605,32.49 C34.658,32.19 33.631,32.63 33.196,33.52 C31.66,36.69 29.331,39.35 26.421,41.28 C23.511,39.35 21.182,36.69 19.646,33.52 C19.211,32.63 18.186,32.19 17.236,32.49 C9.918,34.79 3.769,39.72 -0.078,46.37 C-0.439,46.99 -0.439,47.76 -0.078,48.38 C5.382,57.82 15.536,63.68 26.421,63.68 C37.306,63.68 47.46,57.82 52.92,48.38 C53.281,47.76 53.281,46.99 52.92,46.37 L52.92,46.37 Z" id="Fill-95"></path>
            </g>
        </g>
    </g>
</svg>