<?xml version="1.0" encoding="UTF-8" standalone="no"?>
<svg width="66px" height="46px" viewBox="0 0 66 46" version="1.1" xmlns="http://www.w3.org/2000/svg" xmlns:xlink="http://www.w3.org/1999/xlink" xmlns:sketch="http://www.bohemiancoding.com/sketch/ns">
    <!-- Generator: Sketch 3.0.4 (8054) - http://www.bohemiancoding.com/sketch -->
    <title>mail</title>
    <desc>Created with Sketch.</desc>
    <defs></defs>
    <g id="Page-1" stroke="none" stroke-width="1" fill="none" fill-rule="evenodd" sketch:type="MSPage">
        <g id="60_free_icons_by_yegor_shustov" sketch:type="MSLayerGroup" transform="translate(-499.000000, -1174.000000)" fill="#4990E2">
            <path d="M506.741,1214.01 L524.077,1201.78 C524.685,1201.35 524.829,1200.51 524.401,1199.91 C523.973,1199.3 523.135,1199.16 522.526,1199.58 L503.784,1212.8 C503.623,1212.49 503.523,1212.14 503.523,1211.77 L503.523,1180.58 C503.523,1180.36 503.567,1180.15 503.629,1179.94 L530.47,1200.94 C530.957,1201.32 531.542,1201.51 532.128,1201.51 C532.713,1201.51 533.299,1201.32 533.786,1200.94 L559.453,1180.84 L559.453,1211.77 C559.453,1211.82 559.442,1211.86 559.44,1211.9 L541.965,1199.58 C541.356,1199.16 540.519,1199.3 540.091,1199.91 C539.663,1200.51 539.808,1201.35 540.415,1201.78 L557.681,1213.96 C557.532,1213.99 557.38,1214.01 557.222,1214.01 L506.741,1214.01 L506.741,1214.01 Z M557.222,1178.35 C557.517,1178.35 557.798,1178.41 558.056,1178.52 L532.128,1198.82 L505.96,1178.35 L557.222,1178.35 L557.222,1178.35 Z M557.222,1174.32 L505.755,1174.32 C502.3,1174.32 499.488,1177.13 499.488,1180.58 L499.488,1211.77 C499.488,1215.23 502.3,1218.04 505.755,1218.04 L557.222,1218.04 C560.677,1218.04 563.488,1215.23 563.488,1211.77 L563.488,1180.58 C563.488,1177.13 560.677,1174.32 557.222,1174.32 L557.222,1174.32 Z" id="mail" sketch:type="MSShapeGroup"></path>
        </g>
    </g>
</svg>