<?xml version="1.0" encoding="UTF-8" standalone="no"?>
<svg width="65px" height="65px" viewBox="0 0 65 65" version="1.1" xmlns="http://www.w3.org/2000/svg" xmlns:xlink="http://www.w3.org/1999/xlink" xmlns:sketch="http://www.bohemiancoding.com/sketch/ns">
    <!-- Generator: Sketch 3.0.4 (8054) - http://www.bohemiancoding.com/sketch -->
    <title>question</title>
    <desc>Created with Sketch.</desc>
    <defs></defs>
    <g id="Page-1" stroke="none" stroke-width="1" fill="none" fill-rule="evenodd" sketch:type="MSPage">
        <g id="60_free_icons_by_yegor_shustov" sketch:type="MSLayerGroup" transform="translate(-187.000000, -3602.000000)" fill="#4990E2">
            <g id="question" transform="translate(188.000000, 3602.000000)" sketch:type="MSShapeGroup">
                <path d="M59.955,43.87 C59.955,52.94 52.607,60.29 43.543,60.29 L20.439,60.29 C11.375,60.29 4.027,52.94 4.027,43.87 L4.027,20.77 C4.027,11.71 11.375,4.36 20.439,4.36 L43.543,4.36 C52.607,4.36 59.955,11.71 59.955,20.77 L59.955,43.87 L59.955,43.87 Z M43.543,0.32 L20.439,0.32 C9.164,0.32 -0.009,9.5 -0.009,20.77 L-0.009,43.87 C-0.009,55.15 9.164,64.32 20.439,64.32 L43.543,64.32 C54.818,64.32 63.991,55.15 63.991,43.87 L63.991,20.77 C63.991,9.5 54.818,0.32 43.543,0.32 L43.543,0.32 Z" id="Fill-148"></path>
                <path d="M8.947,34.96 C9.689,34.96 10.292,34.36 10.292,33.61 L10.292,20.63 C10.292,15.11 14.782,10.63 20.301,10.63 L43.682,10.63 C46.031,10.63 48.316,11.46 50.117,12.97 C50.686,13.45 51.533,13.38 52.013,12.81 C52.491,12.24 52.418,11.39 51.85,10.92 C49.564,8.99 46.664,7.93 43.682,7.93 L20.301,7.93 C13.298,7.93 7.602,13.63 7.602,20.63 L7.602,33.61 C7.602,34.36 8.203,34.96 8.947,34.96" id="Fill-149"></path>
                <path d="M53.69,20.63 L53.69,44.01 C53.69,49.53 49.2,54.02 43.682,54.02 L20.301,54.02 C14.782,54.02 10.292,49.53 10.292,44.01 C10.292,43.27 9.689,42.67 8.947,42.67 C8.203,42.67 7.602,43.27 7.602,44.01 C7.602,51.02 13.298,56.71 20.301,56.71 L43.682,56.71 C50.685,56.71 56.381,51.02 56.381,44.01 L56.381,20.63 C56.381,19.89 55.779,19.29 55.035,19.29 C54.293,19.29 53.69,19.89 53.69,20.63" id="Fill-150"></path>
                <path d="M42.49,27.24 C42.49,21.45 37.781,16.74 31.991,16.74 C26.202,16.74 21.492,21.45 21.492,27.24 C21.492,27.98 22.094,28.59 22.837,28.59 C23.58,28.59 24.183,27.98 24.183,27.24 C24.183,22.93 27.686,19.43 31.991,19.43 C36.297,19.43 39.799,22.93 39.799,27.24 C39.799,30 38.031,32.79 35.688,33.73 C33.523,34.59 30.646,36.13 30.646,39.47 C30.646,40.22 31.248,40.82 31.991,40.82 C32.734,40.82 33.336,40.22 33.336,39.47 C33.336,38.53 33.734,37.41 36.687,36.23 C40.05,34.88 42.49,31.1 42.49,27.24" id="Fill-151"></path>
                <path d="M31.991,43.98 C30.587,43.98 29.447,45.12 29.447,46.52 C29.447,47.93 30.587,49.07 31.991,49.07 C33.395,49.07 34.534,47.93 34.534,46.52 C34.534,45.12 33.395,43.98 31.991,43.98" id="Fill-152"></path>
            </g>
        </g>
    </g>
</svg>