<?xml version="1.0" encoding="UTF-8" standalone="no"?>
<svg width="65px" height="64px" viewBox="0 0 65 64" version="1.1" xmlns="http://www.w3.org/2000/svg" xmlns:xlink="http://www.w3.org/1999/xlink" xmlns:sketch="http://www.bohemiancoding.com/sketch/ns">
    <!-- Generator: Sketch 3.0.4 (8054) - http://www.bohemiancoding.com/sketch -->
    <title>Group</title>
    <desc>Created with Sketch.</desc>
    <defs></defs>
    <g id="Page-1" stroke="none" stroke-width="1" fill="none" fill-rule="evenodd" sketch:type="MSPage">
        <g id="60_free_icons_by_yegor_shustov" sketch:type="MSLayerGroup" transform="translate(-592.000000, -2927.000000)" fill="#4990E2">
            <g id="Group" transform="translate(592.000000, 2928.000000)" sketch:type="MSShapeGroup">
                <path d="M13.296,30.55 C14.032,30.55 14.63,29.96 14.63,29.22 L14.63,0.93 C14.63,0.19 14.032,-0.4 13.296,-0.4 C12.56,-0.4 11.963,0.19 11.963,0.93 L11.963,29.22 C11.963,29.96 12.56,30.55 13.296,30.55" id="Fill-200"></path>
                <path d="M23.269,19.05 C24.005,19.05 24.602,18.46 24.602,17.72 L24.602,0.93 C24.602,0.19 24.005,-0.4 23.269,-0.4 C22.531,-0.4 21.935,0.19 21.935,0.93 L21.935,17.72 C21.935,18.46 22.531,19.05 23.269,19.05" id="Fill-201"></path>
                <path d="M33.239,24.71 C33.976,24.71 34.573,24.12 34.573,23.38 L34.573,0.93 C34.573,0.19 33.976,-0.4 33.239,-0.4 C32.503,-0.4 31.905,0.19 31.905,0.93 L31.905,23.38 C31.905,24.12 32.503,24.71 33.239,24.71" id="Fill-202"></path>
                <path d="M43.212,12.6 C43.948,12.6 44.545,12 44.545,11.26 L44.545,0.93 C44.545,0.19 43.948,-0.4 43.212,-0.4 C42.476,-0.4 41.878,0.19 41.878,0.93 L41.878,11.26 C41.878,12 42.476,12.6 43.212,12.6" id="Fill-203"></path>
                <path d="M63.154,18.04 C62.418,18.04 61.821,18.64 61.821,19.38 L61.821,58.76 L54.517,58.76 L54.517,28.34 C54.517,27.61 53.92,27.01 53.184,27.01 C52.446,27.01 51.85,27.61 51.85,28.34 L51.85,58.76 L44.545,58.76 L44.545,42.45 C44.545,41.72 43.948,41.12 43.212,41.12 C42.476,41.12 41.878,41.72 41.878,42.45 L41.878,58.76 L34.573,58.76 L34.573,48.95 C34.573,48.21 33.976,47.61 33.239,47.61 C32.503,47.61 31.906,48.21 31.906,48.95 L31.906,58.76 L24.602,58.76 L24.602,46.65 C24.602,45.91 24.005,45.31 23.269,45.31 C22.531,45.31 21.935,45.91 21.935,46.65 L21.935,58.76 L14.63,58.76 L14.63,57.47 C14.63,56.74 14.032,56.14 13.296,56.14 C12.56,56.14 11.963,56.74 11.963,57.47 L11.963,58.76 L6.277,58.76 L24.054,32.74 L34.38,39.18 C35.282,39.75 36.47,39.51 37.079,38.63 L59.364,6.75 L60.262,11.45 C60.444,12.41 61.283,13.07 62.225,13.07 C62.349,13.07 62.476,13.06 62.602,13.04 C63.687,12.83 64.398,11.78 64.19,10.7 L62.435,1.5 C62.335,0.98 62.032,0.52 61.594,0.22 C61.155,-0.08 60.613,-0.19 60.094,-0.09 L50.897,1.67 C49.812,1.88 49.101,2.93 49.308,4.01 C49.516,5.1 50.561,5.81 51.648,5.6 L55.852,4.79 L34.889,34.78 L24.544,28.33 C23.634,27.76 22.438,28.01 21.833,28.89 L4.489,54.29 L4.489,1.78 C4.489,0.68 3.593,-0.22 2.488,-0.22 C1.384,-0.22 0.488,0.68 0.488,1.78 L0.488,60.76 C0.488,60.79 0.495,60.81 0.495,60.84 C0.5,60.94 0.507,61.04 0.527,61.15 C0.539,61.21 0.561,61.26 0.577,61.32 C0.597,61.39 0.612,61.45 0.639,61.52 C0.663,61.58 0.695,61.63 0.725,61.69 C0.756,61.75 0.783,61.81 0.82,61.86 C0.856,61.92 0.899,61.96 0.939,62.01 C0.98,62.06 1.019,62.12 1.065,62.16 C1.13,62.23 1.203,62.29 1.276,62.34 C1.306,62.37 1.329,62.39 1.36,62.41 C1.362,62.41 1.364,62.42 1.366,62.42 C1.377,62.42 1.39,62.43 1.401,62.44 C1.491,62.49 1.582,62.54 1.677,62.59 C1.709,62.6 1.743,62.61 1.776,62.62 C1.858,62.66 1.94,62.68 2.024,62.7 C2.059,62.71 2.093,62.72 2.128,62.72 C2.247,62.75 2.366,62.76 2.486,62.76 L2.487,62.76 L2.488,62.76 L62.319,62.76 C63.067,62.76 63.711,62.35 64.054,61.74 C64.319,61.5 64.488,61.15 64.488,60.76 L64.488,19.38 C64.488,18.64 63.891,18.04 63.154,18.04" id="Fill-204"></path>
            </g>
        </g>
    </g>
</svg>