<?xml version="1.0" encoding="UTF-8" standalone="no"?>
<svg width="60px" height="66px" viewBox="0 0 60 66" version="1.1" xmlns="http://www.w3.org/2000/svg" xmlns:xlink="http://www.w3.org/1999/xlink" xmlns:sketch="http://www.bohemiancoding.com/sketch/ns">
    <!-- Generator: Sketch 3.0.4 (8054) - http://www.bohemiancoding.com/sketch -->
    <title>browse</title>
    <desc>Created with Sketch.</desc>
    <defs></defs>
    <g id="Page-1" stroke="none" stroke-width="1" fill="none" fill-rule="evenodd" sketch:type="MSPage">
        <g id="60_free_icons_by_yegor_shustov" sketch:type="MSLayerGroup" transform="translate(-502.000000, -2689.000000)" fill="#4990E2">
            <path d="M541.782,2743.93 C544.332,2740.81 546.328,2736.55 547.493,2731.63 C550.606,2732 552.63,2732.44 553.343,2732.84 C550.838,2737.7 546.761,2741.63 541.782,2743.93 L541.782,2743.93 Z M509.634,2732.84 C510.347,2732.44 512.371,2732 515.485,2731.63 C516.649,2736.55 518.646,2740.81 521.194,2743.93 C516.217,2741.62 512.14,2737.7 509.634,2732.84 L509.634,2732.84 Z M508.549,2712.84 C509.709,2713.38 511.682,2713.85 514.95,2714.26 C514.555,2716.64 514.343,2719.11 514.343,2721.63 C514.343,2724.18 514.558,2726.65 514.954,2729.01 C511.684,2729.41 509.71,2729.87 508.55,2730.42 C507.499,2727.69 506.917,2724.73 506.917,2721.63 C506.917,2718.53 507.499,2715.57 508.549,2712.84 L508.549,2712.84 Z M521.102,2699.37 C520.813,2699.73 520.529,2700.09 520.255,2700.48 C519.827,2701.08 519.969,2701.91 520.569,2702.34 C521.171,2702.76 522.004,2702.62 522.43,2702.02 C523.951,2699.88 525.695,2698.31 527.54,2697.38 C528.397,2697.24 529.27,2697.14 530.155,2697.1 L530.155,2702.04 C530.155,2702.78 530.752,2703.38 531.489,2703.38 C532.226,2703.38 532.823,2702.78 532.823,2702.04 L532.823,2697.1 C533.708,2697.14 534.581,2697.24 535.438,2697.38 C537.283,2698.31 539.028,2699.88 540.55,2702.02 C540.811,2702.39 541.222,2702.59 541.64,2702.59 C541.906,2702.59 542.176,2702.51 542.41,2702.34 C543.011,2701.91 543.152,2701.08 542.726,2700.48 C542.45,2700.09 542.166,2699.73 541.878,2699.37 C546.813,2701.68 550.854,2705.59 553.343,2710.42 C552.633,2710.81 550.616,2711.26 547.513,2711.63 C547.079,2709.77 546.526,2707.99 545.853,2706.31 C545.578,2705.62 544.804,2705.29 544.118,2705.57 C543.434,2705.84 543.102,2706.62 543.376,2707.3 C543.959,2708.76 544.44,2710.3 544.83,2711.91 C541.585,2712.19 537.532,2712.4 532.823,2712.43 L532.823,2708.09 C532.823,2707.35 532.226,2706.75 531.489,2706.75 C530.752,2706.75 530.155,2707.35 530.155,2708.09 L530.155,2712.43 C525.445,2712.4 521.393,2712.19 518.147,2711.91 C518.537,2710.3 519.019,2708.76 519.603,2707.3 C519.876,2706.62 519.544,2705.84 518.86,2705.57 C518.175,2705.29 517.4,2705.62 517.126,2706.31 C516.452,2707.99 515.897,2709.77 515.464,2711.63 C512.361,2711.26 510.345,2710.81 509.634,2710.42 C512.123,2705.59 516.165,2701.68 521.102,2699.37 L521.102,2699.37 Z M532.823,2728.17 L532.823,2715.09 C537.399,2715.06 541.723,2714.87 545.372,2714.53 C545.761,2716.82 545.967,2719.2 545.967,2721.63 C545.967,2724.09 545.76,2726.47 545.38,2728.73 C541.729,2728.39 537.402,2728.2 532.823,2728.17 L532.823,2728.17 Z M517.011,2721.63 C517.011,2719.2 517.217,2716.82 517.605,2714.53 C521.255,2714.87 525.579,2715.06 530.155,2715.09 L530.155,2728.17 C525.575,2728.2 521.249,2728.39 517.597,2728.73 C517.218,2726.47 517.011,2724.09 517.011,2721.63 L517.011,2721.63 Z M518.13,2731.35 C521.378,2731.07 525.437,2730.86 530.155,2730.83 L530.155,2746.16 C529.241,2746.11 528.341,2746.01 527.456,2745.86 C523.238,2743.73 519.809,2738.34 518.13,2731.35 L518.13,2731.35 Z M535.521,2745.86 C534.637,2746.01 533.737,2746.11 532.823,2746.16 L532.823,2730.83 C537.54,2730.86 541.6,2731.07 544.848,2731.35 C543.169,2738.34 539.739,2743.73 535.521,2745.86 L535.521,2745.86 Z M554.429,2730.42 C553.268,2729.87 551.294,2729.41 548.022,2729.01 C548.419,2726.65 548.635,2724.18 548.635,2721.63 C548.635,2719.11 548.423,2716.64 548.026,2714.26 C551.296,2713.85 553.269,2713.38 554.429,2712.84 C555.479,2715.57 556.06,2718.53 556.06,2721.63 C556.06,2724.73 555.479,2727.69 554.429,2730.42 L554.429,2730.42 Z M560.062,2721.63 C560.062,2706.32 547.962,2693.79 532.823,2693.09 L532.823,2691.04 C532.823,2690.3 532.226,2689.7 531.489,2689.7 C530.752,2689.7 530.155,2690.3 530.155,2691.04 L530.155,2693.09 C515.017,2693.79 502.915,2706.32 502.915,2721.63 C502.915,2736.94 515.017,2749.47 530.155,2750.17 L530.155,2752.37 C530.155,2753.11 530.752,2753.7 531.489,2753.7 C532.226,2753.7 532.823,2753.11 532.823,2752.37 L532.823,2750.17 C547.962,2749.47 560.062,2736.94 560.062,2721.63 L560.062,2721.63 Z" id="browse" sketch:type="MSShapeGroup"></path>
        </g>
    </g>
</svg>