<?xml version="1.0" encoding="UTF-8" standalone="no"?>
<svg width="25px" height="26px" viewBox="0 0 25 26" version="1.1" xmlns="http://www.w3.org/2000/svg" xmlns:xlink="http://www.w3.org/1999/xlink" xmlns:sketch="http://www.bohemiancoding.com/sketch/ns">
    <!-- Generator: Sketch 3.0.4 (8054) - http://www.bohemiancoding.com/sketch -->
    <title>Shape</title>
    <desc>Created with Sketch.</desc>
    <defs></defs>
    <g id="Page-1" stroke="none" stroke-width="1" fill="none" fill-rule="evenodd" sketch:type="MSPage">
        <g id="1415245727_remove-01" sketch:type="MSLayerGroup" transform="translate(0.000000, 1.000000)" fill="#4A4A4A">
            <path d="M16.377,11.519 L22.944,4.953 C23.906,3.99 23.906,2.414 22.944,1.451 L22.068,0.576 C21.105,-0.388 19.529,-0.388 18.567,0.576 L12,7.142 L5.433,0.575 C4.471,-0.388 2.895,-0.388 1.932,0.575 L1.056,1.45 C0.094,2.413 0.094,3.989 1.056,4.952 L7.622,11.518 L1.056,18.085 C0.094,19.048 0.094,20.623 1.056,21.586 L1.932,22.462 C2.895,23.425 4.471,23.425 5.433,22.462 L12,15.896 L18.567,22.462 C19.529,23.425 21.105,23.425 22.068,22.462 L22.944,21.586 C23.906,20.623 23.906,19.048 22.944,18.085 L16.377,11.519 L16.377,11.519 Z" id="Shape" sketch:type="MSShapeGroup"></path>
        </g>
    </g>
</svg>