<?xml version="1.0" encoding="UTF-8" standalone="no"?>
<svg width="65px" height="65px" viewBox="0 0 65 65" version="1.1" xmlns="http://www.w3.org/2000/svg" xmlns:xlink="http://www.w3.org/1999/xlink" xmlns:sketch="http://www.bohemiancoding.com/sketch/ns">
    <!-- Generator: Sketch 3.0.4 (8054) - http://www.bohemiancoding.com/sketch -->
    <title>Group</title>
    <desc>Created with Sketch.</desc>
    <defs></defs>
    <g id="Page-1" stroke="none" stroke-width="1" fill="none" fill-rule="evenodd" sketch:type="MSPage">
        <g id="60_free_icons_by_yegor_shustov" sketch:type="MSLayerGroup" transform="translate(-253.000000, -2418.000000)">
            <g id="Group" transform="translate(253.000000, 2419.000000)" sketch:type="MSShapeGroup">
                <path d="M60.4,43.24 C60.4,52.31 53.048,59.66 43.979,59.66 L20.863,59.66 C11.795,59.66 4.441,52.31 4.441,43.24 L4.441,20.12 C4.441,11.05 11.795,3.7 20.863,3.7 L43.979,3.7 C53.048,3.7 60.4,11.05 60.4,20.12 L60.4,43.24 L60.4,43.24 Z M43.979,-0.32 L20.863,-0.32 C9.592,-0.32 0.421,8.85 0.421,20.12 L0.421,43.24 C0.421,54.51 9.592,63.68 20.863,63.68 L43.979,63.68 C55.251,63.68 64.421,54.51 64.421,43.24 L64.421,20.12 C64.421,8.85 55.251,-0.32 43.979,-0.32 L43.979,-0.32 Z" id="Fill-171" fill="#4990E2"></path>
                <path d="M8.633,36.8 C9.373,36.8 9.973,36.2 9.973,35.46 L9.973,19.61 C9.973,13.89 14.629,9.23 20.354,9.23 L44.488,9.23 C46.926,9.23 49.296,10.1 51.164,11.67 C51.729,12.14 52.575,12.07 53.053,11.51 C53.528,10.94 53.456,10.09 52.89,9.62 C50.539,7.64 47.556,6.55 44.488,6.55 L20.354,6.55 C13.151,6.55 7.292,12.41 7.292,19.61 L7.292,35.46 C7.292,36.2 7.893,36.8 8.633,36.8" id="Fill-172" fill="#4990E2"></path>
                <path d="M54.87,18.54 L54.87,43.75 C54.87,49.47 50.213,54.13 44.488,54.13 L20.354,54.13 C14.629,54.13 9.973,49.47 9.973,43.75 C9.973,43.01 9.373,42.41 8.633,42.41 C7.893,42.41 7.292,43.01 7.292,43.75 C7.292,50.95 13.151,56.81 20.354,56.81 L44.488,56.81 C51.691,56.81 57.551,50.95 57.551,43.75 L57.551,18.54 C57.551,17.8 56.95,17.2 56.21,17.2 C55.47,17.2 54.87,17.8 54.87,18.54" id="Fill-173" fill="#4990E2"></path>
                <path d="M24.2808128,22.811234 L31.5481925,15.5984681 C32.3500749,14.8008511 33.6504385,14.8008511 34.4518075,15.5984681 L41.7191872,22.811234 C42.5210695,23.6088511 42.5210695,24.9022979 41.7191872,25.6999149 C41.318246,26.0987234 40.7925561,26.2978723 40.2673797,26.2978723 C39.7422032,26.2978723 39.2165134,26.0987234 38.8155722,25.6999149 L35.0534759,21.9737872 L35.0534759,45.6382979 C35.0534759,46.7662979 34.1340321,47.6808511 33,47.6808511 C31.8659679,47.6808511 30.9465241,46.7662979 30.9465241,45.6382979 L30.9465241,21.9737872 L27.1844278,25.6999149 C26.3830588,26.4970213 25.0821818,26.4970213 24.2808128,25.6999149 C23.4789305,24.9022979 23.4789305,23.6088511 24.2808128,22.811234 Z" id="Shape" fill="#4A90E2"></path>
            </g>
        </g>
    </g>
</svg>