<?xml version="1.0" encoding="UTF-8" standalone="no"?>
<svg width="13px" height="17px" viewBox="0 0 13 17" version="1.1" xmlns="http://www.w3.org/2000/svg" xmlns:xlink="http://www.w3.org/1999/xlink" xmlns:sketch="http://www.bohemiancoding.com/sketch/ns">
    <!-- Generator: Sketch 3.0.4 (8054) - http://www.bohemiancoding.com/sketch -->
    <title>trash</title>
    <desc>Created with Sketch.</desc>
    <defs/>
    <g id="Page-1" stroke="none" stroke-width="1" fill="none" fill-rule="evenodd" sketch:type="MSPage">
        <g id="trash" sketch:type="MSLayerGroup" fill="#4A4A4A">
            <path d="M1,3.99188419 L1,15.0081158 C1,16.1082031 1.90017617,17 2.99201702,17 L10.007983,17 C11.1081436,17 12,16.1066027 12,15.0081158 L12,3.99188419 C12,2.89179693 11.0998238,2 10.007983,2 L2.99201702,2 C1.8918564,2 1,2.89339733 1,3.99188419 Z M10.007983,3 C10.5510712,3 11,3.44760752 11,3.99188419 L11,15.0081158 C11,15.5549799 10.5551971,16 10.007983,16 L2.99201702,16 C2.44892877,16 2,15.5523925 2,15.0081158 L2,3.99188419 C2,3.4450201 2.44480292,3 2.99201702,3 L10.007983,3 Z" id="Rectangle-1" sketch:type="MSShapeGroup"/>
            <path d="M9.21276596,1.66418737 C9.21276596,0.903040862 8.60204359,0.293205686 7.83288331,0.293205686 L5.44371244,0.293205686 C4.68187694,0.293205686 4.06382979,0.90337346 4.06382979,1.66418737 L4.06382979,2.53516906 L4.06382979,3.03516906 L4.56382979,3.03516906 L8.71276596,3.03516906 L9.21276596,3.03516906 L9.21276596,2.53516906 L9.21276596,1.66418737 Z M8.71276596,2.03516906 L4.56382979,2.03516906 L5.06382979,2.53516906 L5.06382979,1.66418737 C5.06382979,1.45855069 5.23130997,1.29320569 5.44371244,1.29320569 L7.83288331,1.29320569 C8.05008401,1.29320569 8.21276596,1.4556513 8.21276596,1.66418737 L8.21276596,2.53516906 L8.71276596,2.03516906 Z" id="Rectangle-2" sketch:type="MSShapeGroup"/>
            <path d="M5,5.39482512 C5,5.11868275 4.77614237,4.89482512 4.5,4.89482512 C4.22385763,4.89482512 4,5.11868275 4,5.39482512 L4,14.3948251 C4,14.6709675 4.22385763,14.8948251 4.5,14.8948251 C4.77614237,14.8948251 5,14.6709675 5,14.3948251 L5,5.39482512 Z" id="Line" sketch:type="MSShapeGroup"/>
            <path d="M12,4 C12.5522847,4 13,3.55228475 13,3 C13,2.44771525 12.5522847,2 12,2 L1,2 C0.44771525,2 0,2.44771525 0,3 C0,3.55228475 0.44771525,4 1,4 L12,4 Z" id="Line-5" sketch:type="MSShapeGroup"/>
            <path d="M7,5.39482512 C7,5.11868275 6.77614237,4.89482512 6.5,4.89482512 C6.22385763,4.89482512 6,5.11868275 6,5.39482512 L6,14.3948251 C6,14.6709675 6.22385763,14.8948251 6.5,14.8948251 C6.77614237,14.8948251 7,14.6709675 7,14.3948251 L7,5.39482512 Z" id="Line-2" sketch:type="MSShapeGroup"/>
            <path d="M9,5.39482512 C9,5.11868275 8.77614237,4.89482512 8.5,4.89482512 C8.22385763,4.89482512 8,5.11868275 8,5.39482512 L8,14.3948251 C8,14.6709675 8.22385763,14.8948251 8.5,14.8948251 C8.77614237,14.8948251 9,14.6709675 9,14.3948251 L9,5.39482512 Z" id="Line-3" sketch:type="MSShapeGroup"/>
        </g>
    </g>
</svg>