<?xml version="1.0" encoding="UTF-8" standalone="no"?>
<svg width="628px" height="70px" viewBox="0 0 628 70" version="1.1" xmlns="http://www.w3.org/2000/svg" xmlns:xlink="http://www.w3.org/1999/xlink" xmlns:sketch="http://www.bohemiancoding.com/sketch/ns">
    <!-- Generator: Sketch 3.0.4 (8054) - http://www.bohemiancoding.com/sketch -->
    <title>Resource Room 2</title>
    <desc>Created with Sketch.</desc>
    <defs></defs>
    <g id="Page-1" stroke="none" stroke-width="1" fill="none" fill-rule="evenodd" sketch:type="MSPage">
        <g id="Portrait" sketch:type="MSArtboardGroup" transform="translate(-194.000000, -409.000000)" fill="#6D6D6D">
            <path d="M245.4,430.3 C245.4,417.9 236.8,409.3 223.6,409.3 L201.3,409.3 C197.3,409.3 194.1,412.6 194.1,416.5 L194.1,470.7 C194.1,473.9 196.7,476.6 199.9,476.6 C203.3,476.6 206,473.9 206,470.7 L206,451.2 L217.5,451.2 L230.8,473.7 C231.9,475.6 233.8,476.6 235.8,476.6 C239.3,476.6 241.7,473.6 241.7,470.8 C241.7,469.8 241.4,468.8 240.9,467.9 L229.8,449.9 C237.7,448.6 245.4,442.1 245.4,430.3 Z M221.9,419.8 C228.4,419.8 233.2,423.9 233.2,430.3 C233.2,436.6 228.4,440.7 221.9,440.7 L206,440.7 L206,419.8 L221.9,419.8 Z M296,450.1 C296,448 295.4,445.7 294.8,443.7 C291.8,433.3 283.6,426.5 272.3,426.5 C258,426.5 247.8,437.8 247.8,451.8 C247.8,467.1 258.6,477.2 273.1,477.2 C279.3,477.2 291.7,474.7 291.7,469.2 C291.7,466.6 289.4,464.8 287.2,464.8 C286.5,464.8 285.7,465 285,465.4 C281.7,467.5 277.7,468.6 274.2,468.6 C265.2,468.6 259.7,462.5 259,455.3 L290.8,455.3 C293.7,455.3 296,452.9 296,450.1 Z M285.7,447.9 L258.9,447.9 C259.4,442.1 263.5,435.1 272.3,435.1 C281.7,435.1 285.5,442.3 285.7,447.9 Z M340.2,462 C340.2,442.8 311.1,449.2 311.1,440.7 C311.1,437.4 314.5,434.8 319.9,434.8 C324.2,434.8 328.3,436.1 331.4,438.2 C332.1,438.6 332.9,438.8 333.6,438.8 C335.9,438.8 337.9,437 337.9,434.7 C337.9,433.8 337.6,433 337,432.3 C333.7,428.5 326.4,426.5 319.9,426.5 C307.6,426.5 300.7,433.3 300.7,441.2 C300.7,459.8 329.9,453 329.9,462.4 C329.9,466.1 326.8,468.8 320.5,468.8 C315.9,468.8 310.9,467 307.2,464.5 C306.5,464 305.6,463.8 304.8,463.8 C302.4,463.8 300.2,465.8 300.2,468.3 C300.2,469.3 300.6,470.2 301.2,470.9 C305,475.2 313.6,477.2 320.1,477.2 C333.1,477.2 340.2,470.6 340.2,462 Z M394.5,451.8 C394.5,438 385.1,426.5 369.6,426.5 C354.1,426.5 344.7,438 344.7,451.8 C344.7,465.7 354.1,477.2 369.6,477.2 C385.1,477.2 394.5,465.7 394.5,451.8 Z M383.3,451.8 C383.3,460.3 378.4,467.7 369.6,467.7 C360.7,467.7 355.8,460.3 355.8,451.8 C355.8,443.4 360.7,436 369.6,436 C378.4,436 383.3,443.4 383.3,451.8 Z M442.3,471.3 L442.3,432.3 C442.3,429.5 439.9,427.1 437.1,427.1 C433.9,427.1 431.6,429.5 431.6,432.3 L431.6,461.5 C429.1,464.7 424.6,467.7 419.3,467.7 C413.5,467.7 409.7,465.4 409.7,458 L409.7,432.3 C409.7,429.5 407.3,427.1 404.5,427.1 C401.3,427.1 399,429.5 399,432.3 L399,461.9 C399,471.7 404.1,477.2 414.5,477.2 C422.1,477.2 428.1,473.5 431.6,469.6 L431.6,471.3 C431.6,474.2 433.9,476.6 436.9,476.6 C439.9,476.6 442.3,474.2 442.3,471.3 Z M471,427.1 C465.9,427.1 462.1,431.3 459.5,434.8 L459.5,432.3 C459.5,429.5 457.1,427.1 454.3,427.1 C451.1,427.1 448.8,429.5 448.8,432.3 L448.8,471.3 C448.8,474.2 451.1,476.6 454,476.6 L454.2,476.6 C457.1,476.6 459.5,474.2 459.5,471.3 L459.5,443.2 C462.1,439.5 466.2,437.7 470.5,437.3 C473.5,436.9 475.7,434.9 475.7,431.7 C475.7,429.1 473.9,427.1 471,427.1 Z M517.7,468.5 C517.7,465.7 515.2,463.8 512.6,463.8 C511.5,463.8 510.5,464.1 509.5,464.8 C507,466.7 504.3,467.7 501.1,467.7 C492.4,467.7 486.6,461.1 486.6,451.8 C486.6,442.5 492.4,436 501.1,436 C504.2,436 507,436.9 509.5,438.8 C510.4,439.5 511.5,439.8 512.6,439.8 C515.1,439.8 517.6,438 517.6,435.2 C517.6,434.4 517.4,433.6 516.9,433 C514.2,429.1 508,426.5 500.6,426.5 C485.9,426.5 475.6,437.2 475.6,451.8 C475.6,466.5 485.9,477.2 500.6,477.2 C507.6,477.2 512.6,475 516.1,471.8 C517.2,471 517.7,469.7 517.7,468.5 Z M567.5,450.1 C567.5,448 566.9,445.7 566.3,443.7 C563.3,433.3 555.1,426.5 543.8,426.5 C529.5,426.5 519.3,437.8 519.3,451.8 C519.3,467.1 530.1,477.2 544.6,477.2 C550.8,477.2 563.2,474.7 563.2,469.2 C563.2,466.6 560.9,464.8 558.7,464.8 C558,464.8 557.2,465 556.5,465.4 C553.2,467.5 549.2,468.6 545.7,468.6 C536.7,468.6 531.2,462.5 530.5,455.3 L562.3,455.3 C565.2,455.3 567.5,452.9 567.5,450.1 Z M557.2,447.9 L530.4,447.9 C530.9,442.1 535,435.1 543.8,435.1 C553.2,435.1 557,442.3 557.2,447.9 Z M643.3,430.3 C643.3,417.9 634.7,409.3 621.5,409.3 L599.2,409.3 C595.2,409.3 592,412.6 592,416.5 L592,470.7 C592,473.9 594.6,476.6 597.8,476.6 C601.2,476.6 603.9,473.9 603.9,470.7 L603.9,451.2 L615.4,451.2 L628.7,473.7 C629.8,475.6 631.7,476.6 633.7,476.6 C637.2,476.6 639.6,473.6 639.6,470.8 C639.6,469.8 639.3,468.8 638.8,467.9 L627.7,449.9 C635.6,448.6 643.3,442.1 643.3,430.3 Z M619.8,419.8 C626.3,419.8 631.1,423.9 631.1,430.3 C631.1,436.6 626.3,440.7 619.8,440.7 L603.9,440.7 L603.9,419.8 L619.8,419.8 Z M692.5,451.8 C692.5,438 683.1,426.5 667.6,426.5 C652.1,426.5 642.7,438 642.7,451.8 C642.7,465.7 652.1,477.2 667.6,477.2 C683.1,477.2 692.5,465.7 692.5,451.8 Z M681.3,451.8 C681.3,460.3 676.4,467.7 667.6,467.7 C658.7,467.7 653.8,460.3 653.8,451.8 C653.8,443.4 658.7,436 667.6,436 C676.4,436 681.3,443.4 681.3,451.8 Z M720.9,426.5 C705.4,426.5 696,438 696,451.8 C696,465.7 705.4,477.2 720.9,477.2 C736.4,477.2 745.8,465.7 745.8,451.8 C745.8,438 736.4,426.5 720.9,426.5 Z M734.6,451.8 C734.6,460.3 729.7,467.7 720.9,467.7 C712,467.7 707.1,460.3 707.1,451.8 C707.1,443.4 712,436 720.9,436 C729.7,436 734.6,443.4 734.6,451.8 Z M820.3,471.3 L820.3,441.1 C820.3,431.3 815.2,426.5 806.4,426.5 C799.1,426.5 792.7,431 789.9,435.4 C788.3,430.1 783.9,426.5 776.7,426.5 C769.4,426.5 763,431.3 761,434.3 L761,432.3 C761,429.5 758.6,427.1 755.8,427.1 C752.6,427.1 750.3,429.5 750.3,432.3 L750.3,471.3 C750.3,474.2 752.6,476.6 755.6,476.6 C758.6,476.6 761,474.2 761,471.3 L761,442.4 C763.1,439.3 767.4,436 772,436 C777.6,436 779.9,439.5 779.9,444.6 L779.9,471.3 C779.9,474.2 782.2,476.6 785.2,476.6 C788.2,476.6 790.6,474.2 790.6,471.3 L790.6,442.3 C792.7,439.3 797,436 801.7,436 C807.3,436 809.5,439.5 809.5,444.6 L809.5,471.3 C809.5,474.2 811.9,476.6 814.8,476.6 C817.9,476.6 820.3,474.2 820.3,471.3 L820.3,471.3 Z" id="Resource-Room-2" sketch:type="MSShapeGroup"></path>
        </g>
    </g>
</svg>