<?xml version="1.0" encoding="UTF-8" standalone="no"?>
<svg width="628px" height="70px" viewBox="0 0 628 70" version="1.1" xmlns="http://www.w3.org/2000/svg" xmlns:xlink="http://www.w3.org/1999/xlink" xmlns:sketch="http://www.bohemiancoding.com/sketch/ns">
    <!-- Generator: Sketch 3.0.4 (8054) - http://www.bohemiancoding.com/sketch -->
    <title>Resource Room 2</title>
    <desc>Created with Sketch.</desc>
    <defs></defs>
    <g id="Page-1" stroke="none" stroke-width="1" fill="none" fill-rule="evenodd" sketch:type="MSPage">
        <g id="Portrait" sketch:type="MSArtboardGroup" transform="translate(-196.000000, -303.000000)" fill="#4A90E2">
            <path d="M247.4,324.3 C247.4,311.9 238.8,303.3 225.6,303.3 L203.3,303.3 C199.3,303.3 196.1,306.6 196.1,310.5 L196.1,364.7 C196.1,367.9 198.7,370.6 201.9,370.6 C205.3,370.6 208,367.9 208,364.7 L208,345.2 L219.5,345.2 L232.8,367.7 C233.9,369.6 235.8,370.6 237.8,370.6 C241.3,370.6 243.7,367.6 243.7,364.8 C243.7,363.8 243.4,362.8 242.9,361.9 L231.8,343.9 C239.7,342.6 247.4,336.1 247.4,324.3 Z M223.9,313.8 C230.4,313.8 235.2,317.9 235.2,324.3 C235.2,330.6 230.4,334.7 223.9,334.7 L208,334.7 L208,313.8 L223.9,313.8 Z M298,344.1 C298,342 297.4,339.7 296.8,337.7 C293.8,327.3 285.6,320.5 274.3,320.5 C260,320.5 249.8,331.8 249.8,345.8 C249.8,361.1 260.6,371.2 275.1,371.2 C281.3,371.2 293.7,368.7 293.7,363.2 C293.7,360.6 291.4,358.8 289.2,358.8 C288.5,358.8 287.7,359 287,359.4 C283.7,361.5 279.7,362.6 276.2,362.6 C267.2,362.6 261.7,356.5 261,349.3 L292.8,349.3 C295.7,349.3 298,346.9 298,344.1 Z M287.7,341.9 L260.9,341.9 C261.4,336.1 265.5,329.1 274.3,329.1 C283.7,329.1 287.5,336.3 287.7,341.9 Z M342.2,356 C342.2,336.8 313.1,343.2 313.1,334.7 C313.1,331.4 316.5,328.8 321.9,328.8 C326.2,328.8 330.3,330.1 333.4,332.2 C334.1,332.6 334.9,332.8 335.6,332.8 C337.9,332.8 339.9,331 339.9,328.7 C339.9,327.8 339.6,327 339,326.3 C335.7,322.5 328.4,320.5 321.9,320.5 C309.6,320.5 302.7,327.3 302.7,335.2 C302.7,353.8 331.9,347 331.9,356.4 C331.9,360.1 328.8,362.8 322.5,362.8 C317.9,362.8 312.9,361 309.2,358.5 C308.5,358 307.6,357.8 306.8,357.8 C304.4,357.8 302.2,359.8 302.2,362.3 C302.2,363.3 302.6,364.2 303.2,364.9 C307,369.2 315.6,371.2 322.1,371.2 C335.1,371.2 342.2,364.6 342.2,356 Z M396.5,345.8 C396.5,332 387.1,320.5 371.6,320.5 C356.1,320.5 346.7,332 346.7,345.8 C346.7,359.7 356.1,371.2 371.6,371.2 C387.1,371.2 396.5,359.7 396.5,345.8 Z M385.3,345.8 C385.3,354.3 380.4,361.7 371.6,361.7 C362.7,361.7 357.8,354.3 357.8,345.8 C357.8,337.4 362.7,330 371.6,330 C380.4,330 385.3,337.4 385.3,345.8 Z M444.3,365.3 L444.3,326.3 C444.3,323.5 441.9,321.1 439.1,321.1 C435.9,321.1 433.6,323.5 433.6,326.3 L433.6,355.5 C431.1,358.7 426.6,361.7 421.3,361.7 C415.5,361.7 411.7,359.4 411.7,352 L411.7,326.3 C411.7,323.5 409.3,321.1 406.5,321.1 C403.3,321.1 401,323.5 401,326.3 L401,355.9 C401,365.7 406.1,371.2 416.5,371.2 C424.1,371.2 430.1,367.5 433.6,363.6 L433.6,365.3 C433.6,368.2 435.9,370.6 438.9,370.6 C441.9,370.6 444.3,368.2 444.3,365.3 Z M473,321.1 C467.9,321.1 464.1,325.3 461.5,328.8 L461.5,326.3 C461.5,323.5 459.1,321.1 456.3,321.1 C453.1,321.1 450.8,323.5 450.8,326.3 L450.8,365.3 C450.8,368.2 453.1,370.6 456,370.6 L456.2,370.6 C459.1,370.6 461.5,368.2 461.5,365.3 L461.5,337.2 C464.1,333.5 468.2,331.7 472.5,331.3 C475.5,330.9 477.7,328.9 477.7,325.7 C477.7,323.1 475.9,321.1 473,321.1 Z M519.7,362.5 C519.7,359.7 517.2,357.8 514.6,357.8 C513.5,357.8 512.5,358.1 511.5,358.8 C509,360.7 506.3,361.7 503.1,361.7 C494.4,361.7 488.6,355.1 488.6,345.8 C488.6,336.5 494.4,330 503.1,330 C506.2,330 509,330.9 511.5,332.8 C512.4,333.5 513.5,333.8 514.6,333.8 C517.1,333.8 519.6,332 519.6,329.2 C519.6,328.4 519.4,327.6 518.9,327 C516.2,323.1 510,320.5 502.6,320.5 C487.9,320.5 477.6,331.2 477.6,345.8 C477.6,360.5 487.9,371.2 502.6,371.2 C509.6,371.2 514.6,369 518.1,365.8 C519.2,365 519.7,363.7 519.7,362.5 Z M569.5,344.1 C569.5,342 568.9,339.7 568.3,337.7 C565.3,327.3 557.1,320.5 545.8,320.5 C531.5,320.5 521.3,331.8 521.3,345.8 C521.3,361.1 532.1,371.2 546.6,371.2 C552.8,371.2 565.2,368.7 565.2,363.2 C565.2,360.6 562.9,358.8 560.7,358.8 C560,358.8 559.2,359 558.5,359.4 C555.2,361.5 551.2,362.6 547.7,362.6 C538.7,362.6 533.2,356.5 532.5,349.3 L564.3,349.3 C567.2,349.3 569.5,346.9 569.5,344.1 Z M559.2,341.9 L532.4,341.9 C532.9,336.1 537,329.1 545.8,329.1 C555.2,329.1 559,336.3 559.2,341.9 Z M645.3,324.3 C645.3,311.9 636.7,303.3 623.5,303.3 L601.2,303.3 C597.2,303.3 594,306.6 594,310.5 L594,364.7 C594,367.9 596.6,370.6 599.8,370.6 C603.2,370.6 605.9,367.9 605.9,364.7 L605.9,345.2 L617.4,345.2 L630.7,367.7 C631.8,369.6 633.7,370.6 635.7,370.6 C639.2,370.6 641.6,367.6 641.6,364.8 C641.6,363.8 641.3,362.8 640.8,361.9 L629.7,343.9 C637.6,342.6 645.3,336.1 645.3,324.3 Z M621.8,313.8 C628.3,313.8 633.1,317.9 633.1,324.3 C633.1,330.6 628.3,334.7 621.8,334.7 L605.9,334.7 L605.9,313.8 L621.8,313.8 Z M694.5,345.8 C694.5,332 685.1,320.5 669.6,320.5 C654.1,320.5 644.7,332 644.7,345.8 C644.7,359.7 654.1,371.2 669.6,371.2 C685.1,371.2 694.5,359.7 694.5,345.8 Z M683.3,345.8 C683.3,354.3 678.4,361.7 669.6,361.7 C660.7,361.7 655.8,354.3 655.8,345.8 C655.8,337.4 660.7,330 669.6,330 C678.4,330 683.3,337.4 683.3,345.8 Z M722.9,320.5 C707.4,320.5 698,332 698,345.8 C698,359.7 707.4,371.2 722.9,371.2 C738.4,371.2 747.8,359.7 747.8,345.8 C747.8,332 738.4,320.5 722.9,320.5 Z M736.6,345.8 C736.6,354.3 731.7,361.7 722.9,361.7 C714,361.7 709.1,354.3 709.1,345.8 C709.1,337.4 714,330 722.9,330 C731.7,330 736.6,337.4 736.6,345.8 Z M822.3,365.3 L822.3,335.1 C822.3,325.3 817.2,320.5 808.4,320.5 C801.1,320.5 794.7,325 791.9,329.4 C790.3,324.1 785.9,320.5 778.7,320.5 C771.4,320.5 765,325.3 763,328.3 L763,326.3 C763,323.5 760.6,321.1 757.8,321.1 C754.6,321.1 752.3,323.5 752.3,326.3 L752.3,365.3 C752.3,368.2 754.6,370.6 757.6,370.6 C760.6,370.6 763,368.2 763,365.3 L763,336.4 C765.1,333.3 769.4,330 774,330 C779.6,330 781.9,333.5 781.9,338.6 L781.9,365.3 C781.9,368.2 784.2,370.6 787.2,370.6 C790.2,370.6 792.6,368.2 792.6,365.3 L792.6,336.3 C794.7,333.3 799,330 803.7,330 C809.3,330 811.5,333.5 811.5,338.6 L811.5,365.3 C811.5,368.2 813.9,370.6 816.8,370.6 C819.9,370.6 822.3,368.2 822.3,365.3 L822.3,365.3 Z" id="Resource-Room-2" sketch:type="MSShapeGroup"></path>
        </g>
    </g>
</svg>